<?xml version="1.0" encoding="UTF-8" standalone="no"?>
<svg width="987px" height="255px" viewBox="0 0 987 255" version="1.1" xmlns="http://www.w3.org/2000/svg" xmlns:xlink="http://www.w3.org/1999/xlink" xmlns:sketch="http://www.bohemiancoding.com/sketch/ns">
    <!-- Generator: Sketch 3.1.1 (8761) - http://www.bohemiancoding.com/sketch -->
    <title>pcco-logo</title>
    <desc>Created with Sketch.</desc>
    <defs></defs>
    <g id="Page-1" stroke="none" stroke-width="1" fill="none" fill-rule="evenodd" sketch:type="MSPage">
        <g id="pcco-logo" sketch:type="MSLayerGroup">
            <g id="logo" sketch:type="MSShapeGroup">
                <path d="M755.34375,217.695312 L755.34375,207.957031 L764.34375,207.957031 L764.34375,217.695312 L755.34375,217.695312 Z M755.34375,248 L755.34375,238.296875 L764.34375,238.296875 L764.34375,248 L755.34375,248 Z M772.816406,254.679688 L767.507812,254.679688 L787.792969,192.558594 L793.136719,192.558594 L772.816406,254.679688 Z M794.929688,254.679688 L789.621094,254.679688 L809.90625,192.558594 L815.25,192.558594 L794.929688,254.679688 Z M826.394531,227.257812 L826.394531,228.207031 C826.394531,234.51175 826.710934,238.36718 827.34375,239.773438 C827.976566,241.179695 829.195303,241.882812 831,241.882812 C832.875009,241.882812 834.140622,241.22071 834.796875,239.896484 C835.453128,238.572259 835.78125,235.13284 835.78125,229.578125 L835.78125,227.925781 L835.78125,225.605469 C835.78125,220.28513 835.447269,216.93946 834.779297,215.568359 C834.111325,214.197259 832.875009,213.511719 831.070312,213.511719 C829.289054,213.511719 828.064456,214.138666 827.396484,215.392578 C826.728512,216.646491 826.394531,219.664039 826.394531,224.445312 L826.394531,227.257812 Z M816.761719,227.679688 C816.761719,219.476521 817.816396,213.851578 819.925781,210.804688 C822.035167,207.757797 825.749973,206.234375 831.070312,206.234375 C836.414089,206.234375 840.140614,207.757797 842.25,210.804688 C844.359386,213.851578 845.414062,219.476521 845.414062,227.679688 C845.414062,235.882854 844.359386,241.501938 842.25,244.537109 C840.140614,247.572281 836.414089,249.089844 831.070312,249.089844 C825.749973,249.089844 822.035167,247.572281 819.925781,244.537109 C817.816396,241.501938 816.761719,235.882854 816.761719,227.679688 L816.761719,227.679688 Z M852.410156,248 L852.410156,207.324219 L861.621094,207.324219 L861.621094,211.4375 C862.605474,209.726554 863.812493,208.431645 865.242188,207.552734 C866.671882,206.673824 868.300772,206.234375 870.128906,206.234375 C873.082046,206.234375 875.343742,207.078117 876.914062,208.765625 C878.484383,210.453133 879.269531,212.87889 879.269531,216.042969 L879.269531,248 L870.199219,248 L870.199219,220.71875 C870.199219,218.328113 869.894534,216.646489 869.285156,215.673828 C868.675778,214.701167 867.656257,214.214844 866.226562,214.214844 C864.656242,214.214844 863.531253,214.812494 862.851562,216.007812 C862.171872,217.203131 861.832031,219.230454 861.832031,222.089844 L861.832031,248 L852.410156,248 Z M887.25,248 L887.25,193.859375 L896.601562,193.859375 L896.601562,248 L887.25,248 Z M904.6875,202.296875 L904.6875,193.859375 L914.039062,193.859375 L914.039062,202.296875 L904.6875,202.296875 Z M904.6875,248 L904.6875,207.324219 L914.039062,207.324219 L914.039062,248 L904.6875,248 Z M922.195312,248 L922.195312,207.324219 L931.40625,207.324219 L931.40625,211.4375 C932.39063,209.726554 933.597649,208.431645 935.027344,207.552734 C936.457038,206.673824 938.085928,206.234375 939.914062,206.234375 C942.867202,206.234375 945.128898,207.078117 946.699219,208.765625 C948.269539,210.453133 949.054688,212.87889 949.054688,216.042969 L949.054688,248 L939.984375,248 L939.984375,220.71875 C939.984375,218.328113 939.679691,216.646489 939.070312,215.673828 C938.460934,214.701167 937.441413,214.214844 936.011719,214.214844 C934.441398,214.214844 933.31641,214.812494 932.636719,216.007812 C931.957028,217.203131 931.617188,219.230454 931.617188,222.089844 L931.617188,248 L922.195312,248 Z M965.578125,222.511719 L974.71875,222.511719 L974.71875,220.789062 C974.71875,217.999986 974.37891,216.07813 973.699219,215.023438 C973.019528,213.968745 971.824227,213.441406 970.113281,213.441406 C968.44921,213.441406 967.265629,213.986323 966.5625,215.076172 C965.859371,216.166021 965.507812,218.070299 965.507812,220.789062 C965.507812,220.789062 965.519531,220.98242 965.542969,221.369141 C965.566406,221.755861 965.578125,222.136717 965.578125,222.511719 L965.578125,222.511719 Z M975.035156,234.042969 L983.894531,234.042969 C983.894531,234.23047 983.90625,234.499998 983.929688,234.851562 C983.953125,235.203127 983.964844,235.460937 983.964844,235.625 C983.964844,240.265648 982.857433,243.669911 980.642578,245.837891 C978.427723,248.00587 974.917993,249.089844 970.113281,249.089844 C967.582019,249.089844 965.460946,248.773441 963.75,248.140625 C962.039054,247.507809 960.632818,246.523444 959.53125,245.1875 C958.218743,243.61718 957.292971,241.636731 956.753906,239.246094 C956.214841,236.855457 955.945312,232.554719 955.945312,226.34375 C955.945312,221.398413 956.179685,217.859386 956.648438,215.726562 C957.11719,213.593739 957.914057,211.847663 959.039062,210.488281 C960.210943,209.082024 961.740225,208.021488 963.626953,207.306641 C965.513681,206.591793 967.757799,206.234375 970.359375,206.234375 C972.8672,206.234375 975.029288,206.615231 976.845703,207.376953 C978.662118,208.138676 980.167963,209.292961 981.363281,210.839844 C982.371099,212.199226 983.091795,213.904287 983.525391,215.955078 C983.958987,218.00587 984.175781,221.316383 984.175781,225.886719 L984.175781,228.980469 L965.683594,228.980469 C965.636719,229.285158 965.607422,229.60742 965.595703,229.947266 C965.583984,230.287111 965.578125,230.832028 965.578125,231.582031 C965.578125,235.449238 965.935543,238.156242 966.650391,239.703125 C967.365238,241.250008 968.578116,242.023438 970.289062,242.023438 C971.953133,242.023438 973.160152,241.396491 973.910156,240.142578 C974.66016,238.888666 975.035156,236.855483 975.035156,234.042969 L975.035156,234.042969 Z" id="://online" fill="#EA8A31"></path>
                <path d="M0.06,195.934 L677.885,195.934 L677.885,209.67 L0.06,209.67 L0.06,195.934 L0.06,195.934 Z" id="Fill-11" fill="#52A445"></path>
                <path d="M157.967,148.544 C162.775,151.291 167.582,154.038 172.39,156.099 C181.319,159.533 191.621,161.593 201.923,161.593 C210.165,161.593 218.407,160.219 225.962,158.159 L225.962,117.637 L225.275,117.637 C223.901,118.324 221.841,119.697 219.78,120.384 C217.72,121.071 216.346,121.758 214.286,122.445 C212.225,123.132 210.852,123.132 208.791,123.818 C206.731,123.818 204.67,124.505 203.297,124.505 C197.115,124.505 191.621,123.132 186.126,121.071 C180.632,119.011 175.824,115.577 171.703,111.456 C167.582,107.335 164.148,102.527 162.088,97.719 C160.027,92.912 158.654,87.417 158.654,81.236 C158.654,75.742 160.027,70.247 162.088,64.752 C164.148,59.258 167.582,54.45 171.703,51.016 C175.824,46.895 180.632,44.148 186.126,41.401 C191.621,39.34 197.115,37.967 203.297,37.967 C205.357,37.967 207.418,37.967 208.791,38.654 C210.852,38.654 212.912,39.34 214.286,40.027 C216.346,40.714 217.72,41.401 219.78,42.088 C221.841,42.774 223.214,43.461 225.275,44.835 L225.962,44.835 L225.962,4.313 C218.407,2.252 210.165,0.879 201.923,0.879 C179.945,0.879 159.341,9.807 144.918,24.23 C130.495,38.654 121.566,59.258 121.566,81.236 C121.566,103.214 130.495,123.818 144.918,138.241 C149.038,141.676 153.159,145.796 157.967,148.544" id="Fill-13" fill="#52A445"></path>
                <path d="M311.813,148.544 C316.621,151.291 321.429,154.038 326.236,156.099 C335.165,159.533 345.467,161.593 355.769,161.593 C364.011,161.593 372.253,160.219 379.808,158.159 L379.808,117.637 L379.121,117.637 C377.747,118.324 375.687,119.697 373.626,120.384 C371.566,121.071 370.192,121.758 368.132,122.445 C366.071,123.132 364.698,123.132 362.637,123.818 C360.577,123.818 358.516,124.505 357.143,124.505 C350.962,124.505 345.467,123.132 339.973,121.071 C334.478,119.011 329.67,115.577 325.549,111.456 C321.429,107.335 317.995,102.527 315.934,97.719 C313.874,92.912 312.5,87.417 312.5,81.236 C312.5,75.742 313.874,70.247 315.934,64.752 C317.995,59.258 321.429,54.45 325.549,51.016 C329.67,46.895 334.478,44.148 339.973,41.401 C345.467,39.34 350.962,37.967 357.143,37.967 C359.203,37.967 361.264,37.967 362.637,38.654 C364.698,38.654 366.758,39.34 368.132,40.027 C370.192,40.714 371.566,41.401 373.626,42.088 C375.687,42.774 377.06,43.461 379.121,44.835 L379.808,44.835 L379.808,4.313 C372.253,2.252 364.011,0.879 355.769,0.879 C333.791,0.879 313.187,9.807 298.764,24.23 C284.341,38.654 275.412,59.258 275.412,81.236 C275.412,103.214 284.341,123.818 298.764,138.241 C302.885,141.676 307.005,145.796 311.813,148.544" id="Fill-14" fill="#52A445"></path>
                <path d="M0,161.593 L34.341,161.593 L34.341,30.412 L50.824,30.412 C54.258,30.412 57.006,31.099 59.753,31.785 C62.5,32.472 64.56,33.846 66.621,35.219 C70.742,38.654 72.802,43.461 72.802,48.956 C72.802,51.703 72.115,54.45 71.429,56.511 C70.055,58.571 67.995,60.632 66.621,62.692 C62.5,66.126 58.379,68.186 52.198,68.186 C50.824,68.186 49.451,68.186 48.077,67.5 L46.703,67.5 L46.703,100.467 C48.077,100.467 49.451,101.154 50.137,101.154 L54.945,101.154 C59.753,101.154 63.874,100.467 67.995,99.78 C72.115,98.406 76.236,97.033 80.357,94.285 C84.478,92.225 87.912,89.478 90.659,86.044 C94.093,83.296 96.841,79.862 98.901,75.742 C100.962,71.621 103.022,68.186 103.709,63.379 C105.082,59.258 105.082,54.45 105.082,50.329 C105.082,46.208 104.396,42.088 103.709,37.967 C102.335,33.846 100.962,29.725 98.901,26.291 C96.841,22.17 94.093,18.736 91.346,15.989 C88.599,13.242 85.852,10.494 82.418,8.434 C80.357,7.06 78.297,5.687 75.549,5 C72.802,4.313 70.742,2.939 67.995,2.252 C66.621,1.566 63.874,1.566 60.44,0.879 C57.006,0.879 53.571,0.192 49.451,0.192 L0,0.192 L0,161.593" id="Fill-16" fill="#52A445"></path>
                <path d="M684.753,161.593 L719.093,161.593 L719.093,37.967 L728.709,37.967 C732.83,37.967 737.637,38.654 741.071,39.34 C745.192,40.027 748.626,41.401 752.06,43.461 C755.495,45.522 758.242,47.582 760.989,49.643 C763.736,52.39 765.797,55.137 767.857,58.571 C769.918,62.005 771.291,65.439 771.978,69.56 C772.665,73.681 773.352,77.802 773.352,81.923 C773.352,86.044 772.665,89.478 771.978,93.599 C771.291,97.033 769.918,100.467 768.544,103.901 C766.484,107.335 764.423,110.082 762.363,112.143 C759.615,114.89 756.868,116.95 754.121,118.324 C750.687,119.698 747.94,121.071 743.819,122.445 C740.385,123.132 736.264,123.818 732.83,123.818 L731.456,123.818 L731.456,162.28 C735.577,162.28 739.698,162.28 743.132,161.593 C746.566,160.906 750,160.906 752.747,159.533 C755.495,158.846 758.242,157.472 761.676,156.099 C764.423,154.725 767.857,153.351 770.604,151.291 C773.352,149.23 776.099,147.857 778.846,145.796 C781.594,143.736 783.654,141.676 786.401,138.928 C788.462,136.181 790.522,134.121 792.583,131.373 C794.643,128.626 796.017,125.879 798.077,122.445 C799.451,119.698 800.824,116.263 802.198,112.829 C803.571,109.395 804.258,105.961 805.632,102.527 C806.319,99.093 807.006,95.659 807.692,91.538 C808.379,88.104 808.379,83.983 808.379,80.549 C808.379,76.428 808.379,72.307 807.692,68.873 C807.006,64.753 806.319,61.318 805.632,57.884 C804.258,53.763 803.571,50.329 802.198,46.895 C800.824,43.461 799.451,40.027 797.39,37.28 C795.33,33.846 793.269,31.099 791.209,28.351 C789.148,25.604 786.401,22.857 784.341,20.11 C780.907,16.676 776.786,13.242 772.665,11.181 C768.544,8.434 764.423,6.373 760.302,5 C756.181,3.626 751.374,2.252 745.192,1.566 C739.698,0.879 732.83,0.192 725.275,0.192 L686.127,0.192 L686.127,161.593 L684.753,161.593" id="Fill-18" fill="#52A445"></path>
                <path d="M541.209,161.593 L575.549,161.593 L575.549,37.967 L585.165,37.967 C589.286,37.967 594.093,38.654 597.527,39.34 C601.648,40.027 605.082,41.401 608.516,43.461 C611.951,45.522 614.698,47.582 617.445,49.643 C620.192,52.39 622.253,55.137 624.313,58.571 C626.374,62.005 627.747,65.439 628.434,69.56 C629.121,73.681 629.808,77.802 629.808,81.923 C629.808,86.044 629.121,89.478 628.434,93.599 C627.747,97.033 626.374,100.467 625,103.901 C622.94,107.335 620.879,110.082 618.819,112.143 C616.071,114.89 613.324,116.95 610.577,118.324 C607.143,119.698 604.396,121.071 600.275,122.445 C596.841,123.132 592.72,123.818 589.286,123.818 L587.912,123.818 L587.912,162.28 C592.033,162.28 596.154,162.28 599.588,161.593 C603.022,160.906 606.456,160.906 609.203,159.533 C611.951,158.846 614.698,157.472 618.132,156.099 C620.879,154.725 624.313,153.351 627.061,151.291 C629.808,149.917 632.555,147.857 635.302,145.796 C638.05,143.736 640.11,141.676 642.857,138.928 C644.918,136.181 646.978,134.121 649.039,131.373 C651.099,128.626 652.473,125.879 654.533,122.445 C655.907,119.698 657.28,116.263 658.654,112.829 C660.028,109.395 660.714,105.961 662.088,102.527 C662.775,99.093 663.462,95.659 664.148,91.538 C664.835,88.104 664.835,83.983 664.835,80.549 C664.835,76.428 664.835,72.307 664.148,68.873 C663.462,64.753 662.775,61.318 662.088,57.884 C660.714,53.763 660.028,50.329 658.654,46.895 C657.28,43.461 655.907,40.027 653.846,37.28 C651.786,33.846 649.725,31.099 647.665,28.351 C645.604,25.604 642.857,22.857 640.11,20.11 C636.676,16.676 632.555,13.242 628.434,11.181 C624.313,8.434 620.192,6.373 616.072,5 C611.951,3.626 607.143,2.252 600.962,1.566 C595.467,0.879 588.599,0.192 581.044,0.192 L541.896,0.192 L541.896,161.593 L541.209,161.593" id="Fill-19" fill="#52A445"></path>
                <path d="M826.236,0.192 L860.577,0.192 L860.577,161.593 L826.236,161.593 L826.236,0.192 L826.236,0.192 Z" id="Fill-20" fill="#52A445"></path>
                <path d="M883.242,161.593 L986.264,161.593 L986.264,130.686 L918.956,130.686 L918.956,92.912 L975.961,92.912 L975.961,62.692 L918.956,62.692 L918.956,31.099 L986.264,31.099 L986.264,0.192 L883.242,0.192 L883.242,161.593" id="Fill-21" fill="#52A445"></path>
                <path d="M438.874,0.192 C435.44,6.373 432.692,12.555 429.258,20.11 C425.824,28.351 422.39,36.593 418.956,46.208 C415.522,55.824 412.088,65.439 409.341,75.055 C406.593,84.67 403.846,94.972 401.099,105.274 C399.725,110.082 398.352,114.89 396.978,120.384 C395.604,125.879 394.918,130.687 393.544,135.494 C392.17,140.302 391.483,145.796 390.797,150.604 C390.11,154.038 389.423,158.159 388.736,161.593 L425.137,161.593 C425.824,158.159 426.511,154.725 426.511,151.978 C427.198,147.857 427.885,143.736 428.571,139.615 C429.258,135.494 430.632,131.373 431.319,126.566 C432.005,122.445 433.379,117.637 434.753,113.516 C437.5,103.214 440.247,92.225 443.681,81.923 C445.055,76.428 447.115,71.621 449.176,66.126 C451.236,61.318 453.297,55.824 454.67,51.016 L457.418,44.148 L460.165,51.016 C460.165,51.703 460.852,52.39 461.539,54.45 L463.599,59.945 C464.286,62.692 465.659,64.753 466.346,67.5 C467.72,70.247 468.407,73.681 469.78,76.428 C470.467,78.489 471.154,80.549 471.841,81.923 C472.528,83.983 473.214,86.044 473.901,88.104 C474.588,90.165 475.275,92.225 475.962,94.285 C476.648,96.346 477.335,98.406 477.335,100.467 L478.022,103.901 L450.55,103.901 C450.55,103.901 445.055,132.06 444.368,134.121 L484.89,134.121 C484.89,134.121 486.09519,141.018523 486.95,147.857 C487.80481,154.695477 488.324,161.593 488.324,161.593 L524.725,161.593 C522.665,147.857 519.918,132.747 515.797,115.577 C513.736,106.648 511.676,97.033 508.928,88.104 C506.181,79.176 503.434,69.56 500,59.945 C497.939,54.45 496.566,49.643 494.505,44.148 C492.445,38.654 490.384,33.846 488.324,28.351 C486.264,22.857 484.516,18.049 482.456,13.241 C480.852013,9.49732659 478.709,5 475.962,0.192 L438.874,0.192 Z" id="Fill-22" fill="#52A445"></path>
                <path d="M702.61,195.934 L725.275,195.934 C726.648,195.934 727.335,196.621 727.335,197.994 L727.335,248.132 L718.407,248.132 L718.407,209.67 L702.61,209.67 C701.236,209.67 700.549,208.983 700.549,207.61 L700.549,197.994 C701.236,197.307 701.923,195.934 702.61,195.934 L710.073935,224.051418" id="Fill-23" fill="#52A445"></path>
            </g>
        </g>
    </g>
</svg>